<mxfile host="app.diagrams.net" modified="2023-04-26T07:54:14.259Z" agent="5.0 (Windows NT 10.0; Win64; x64) AppleWebKit/537.36 (KHTML, like Gecko) Chrome/112.0.0.0 Safari/537.36 Edg/112.0.1722.58" version="20.7.4" etag="idYGQNpPbZF41fFeR3uh" type="github">
  <diagram id="EtIquaVXpPKsE2-zg6z7" name="Page-1">
    <mxGraphModel dx="1377" dy="756" grid="1" gridSize="10" guides="1" tooltips="1" connect="1" arrows="1" fold="1" page="1" pageScale="1" pageWidth="850" pageHeight="1100" math="0" shadow="0">
      <root>
        <mxCell id="0" />
        <mxCell id="1" parent="0" />
        <mxCell id="NJXucUkprDvSUzeCFG0w-1" value="VPC&amp;nbsp;&lt;span style=&quot;color: rgb(84, 91, 100); font-family: &amp;quot;Amazon Ember&amp;quot;, &amp;quot;Helvetica Neue&amp;quot;, Roboto, Arial, sans-serif; background-color: rgb(255, 255, 255);&quot;&gt;&lt;b&gt;172.28.1.0/24&lt;/b&gt;&lt;/span&gt;" style="sketch=0;outlineConnect=0;gradientColor=none;html=1;whiteSpace=wrap;fontSize=12;fontStyle=0;shape=mxgraph.aws4.group;grIcon=mxgraph.aws4.group_vpc;strokeColor=#879196;fillColor=none;verticalAlign=top;align=left;spacingLeft=30;fontColor=#879196;dashed=0;" vertex="1" parent="1">
          <mxGeometry x="40" y="150" width="760" height="720" as="geometry" />
        </mxCell>
        <mxCell id="NJXucUkprDvSUzeCFG0w-2" value="Private subnet&amp;nbsp;&lt;span style=&quot;color: rgb(84, 91, 100); font-family: &amp;quot;Amazon Ember&amp;quot;, &amp;quot;Helvetica Neue&amp;quot;, Roboto, Arial, sans-serif; background-color: rgb(255, 255, 255);&quot;&gt;&lt;b&gt;172.28.1.128/26&lt;/b&gt;&lt;/span&gt;" style="points=[[0,0],[0.25,0],[0.5,0],[0.75,0],[1,0],[1,0.25],[1,0.5],[1,0.75],[1,1],[0.75,1],[0.5,1],[0.25,1],[0,1],[0,0.75],[0,0.5],[0,0.25]];outlineConnect=0;gradientColor=none;html=1;whiteSpace=wrap;fontSize=12;fontStyle=0;container=1;pointerEvents=0;collapsible=0;recursiveResize=0;shape=mxgraph.aws4.group;grIcon=mxgraph.aws4.group_security_group;grStroke=0;strokeColor=#147EBA;fillColor=#E6F2F8;verticalAlign=top;align=left;spacingLeft=30;fontColor=#147EBA;dashed=0;" vertex="1" parent="1">
          <mxGeometry x="80" y="240" width="320" height="520" as="geometry" />
        </mxCell>
        <mxCell id="NJXucUkprDvSUzeCFG0w-4" value="&lt;b&gt;EKS Control Plane&lt;/b&gt;" style="sketch=0;html=1;dashed=0;whitespace=wrap;fillColor=#2875E2;strokeColor=#ffffff;points=[[0.005,0.63,0],[0.1,0.2,0],[0.9,0.2,0],[0.5,0,0],[0.995,0.63,0],[0.72,0.99,0],[0.5,1,0],[0.28,0.99,0]];verticalLabelPosition=bottom;align=center;verticalAlign=top;shape=mxgraph.kubernetes.icon;prIcon=master" vertex="1" parent="NJXucUkprDvSUzeCFG0w-2">
          <mxGeometry x="100" y="50" width="120" height="90" as="geometry" />
        </mxCell>
        <mxCell id="NJXucUkprDvSUzeCFG0w-5" value="&lt;b&gt;EC2 instance&lt;/b&gt;" style="points=[[0,0],[0.25,0],[0.5,0],[0.75,0],[1,0],[1,0.25],[1,0.5],[1,0.75],[1,1],[0.75,1],[0.5,1],[0.25,1],[0,1],[0,0.75],[0,0.5],[0,0.25]];outlineConnect=0;gradientColor=none;html=1;whiteSpace=wrap;fontSize=12;fontStyle=0;container=1;pointerEvents=0;collapsible=0;recursiveResize=0;shape=mxgraph.aws4.group;grIcon=mxgraph.aws4.group_ec2_instance_contents;strokeColor=#D86613;fillColor=none;verticalAlign=top;align=left;spacingLeft=30;fontColor=#D86613;dashed=0;" vertex="1" parent="NJXucUkprDvSUzeCFG0w-2">
          <mxGeometry x="95" y="195" width="130" height="130" as="geometry" />
        </mxCell>
        <mxCell id="NJXucUkprDvSUzeCFG0w-9" value="" style="shape=image;verticalLabelPosition=bottom;labelBackgroundColor=default;verticalAlign=top;aspect=fixed;imageAspect=0;image=https://cdn.freebiesupply.com/logos/large/2x/jenkins-1-logo-png-transparent.png;" vertex="1" parent="NJXucUkprDvSUzeCFG0w-5">
          <mxGeometry x="34.32" y="25" width="61.35" height="100" as="geometry" />
        </mxCell>
        <mxCell id="NJXucUkprDvSUzeCFG0w-3" value="Public subnet&amp;nbsp;&lt;span style=&quot;color: rgb(84, 91, 100); font-family: &amp;quot;Amazon Ember&amp;quot;, &amp;quot;Helvetica Neue&amp;quot;, Roboto, Arial, sans-serif; background-color: rgb(255, 255, 255);&quot;&gt;&lt;b&gt;172.28.1.0/26&lt;/b&gt;&lt;/span&gt;" style="points=[[0,0],[0.25,0],[0.5,0],[0.75,0],[1,0],[1,0.25],[1,0.5],[1,0.75],[1,1],[0.75,1],[0.5,1],[0.25,1],[0,1],[0,0.75],[0,0.5],[0,0.25]];outlineConnect=0;gradientColor=none;html=1;whiteSpace=wrap;fontSize=12;fontStyle=0;container=1;pointerEvents=0;collapsible=0;recursiveResize=0;shape=mxgraph.aws4.group;grIcon=mxgraph.aws4.group_security_group;grStroke=0;strokeColor=#248814;fillColor=#E9F3E6;verticalAlign=top;align=left;spacingLeft=30;fontColor=#248814;dashed=0;" vertex="1" parent="1">
          <mxGeometry x="440" y="240" width="320" height="520" as="geometry" />
        </mxCell>
        <mxCell id="NJXucUkprDvSUzeCFG0w-11" value="Auto Scaling Group" style="sketch=0;outlineConnect=0;gradientColor=none;html=1;whiteSpace=wrap;fontSize=12;fontStyle=0;shape=mxgraph.aws4.groupCenter;grIcon=mxgraph.aws4.group_auto_scaling_group;grStroke=0;strokeColor=#879196;fillColor=#ECEFEF;verticalAlign=top;align=center;fontColor=#879196;dashed=0;spacingTop=25;" vertex="1" parent="NJXucUkprDvSUzeCFG0w-3">
          <mxGeometry x="83.75" y="40" width="152.5" height="140" as="geometry" />
        </mxCell>
        <mxCell id="NJXucUkprDvSUzeCFG0w-13" value="Auto Scaling Group" style="sketch=0;outlineConnect=0;gradientColor=none;html=1;whiteSpace=wrap;fontSize=12;fontStyle=0;shape=mxgraph.aws4.groupCenter;grIcon=mxgraph.aws4.group_auto_scaling_group;grStroke=0;strokeColor=#879196;fillColor=#ECEFEF;verticalAlign=top;align=center;fontColor=#879196;dashed=0;spacingTop=25;" vertex="1" parent="NJXucUkprDvSUzeCFG0w-3">
          <mxGeometry x="83.75" y="195" width="152.5" height="140" as="geometry" />
        </mxCell>
        <mxCell id="NJXucUkprDvSUzeCFG0w-52" style="edgeStyle=elbowEdgeStyle;rounded=1;orthogonalLoop=1;jettySize=auto;html=1;strokeColor=#000000;strokeWidth=2;fontSize=14;fontColor=#000000;startArrow=oval;startFill=1;dashed=1;dashPattern=1 1;" edge="1" parent="NJXucUkprDvSUzeCFG0w-3" source="NJXucUkprDvSUzeCFG0w-14">
          <mxGeometry relative="1" as="geometry">
            <mxPoint x="260" y="125" as="targetPoint" />
          </mxGeometry>
        </mxCell>
        <mxCell id="NJXucUkprDvSUzeCFG0w-14" value="&lt;b&gt;Managed Node Group 1&lt;/b&gt;" style="sketch=0;html=1;dashed=0;whitespace=wrap;fillColor=#2875E2;strokeColor=#ffffff;points=[[0.005,0.63,0],[0.1,0.2,0],[0.9,0.2,0],[0.5,0,0],[0.995,0.63,0],[0.72,0.99,0],[0.5,1,0],[0.28,0.99,0]];verticalLabelPosition=bottom;align=center;verticalAlign=top;shape=mxgraph.kubernetes.icon;prIcon=node" vertex="1" parent="NJXucUkprDvSUzeCFG0w-3">
          <mxGeometry x="122.5" y="90" width="75" height="70" as="geometry" />
        </mxCell>
        <mxCell id="NJXucUkprDvSUzeCFG0w-15" value="&lt;b&gt;Managed Node Group 2&lt;/b&gt;" style="sketch=0;html=1;dashed=0;whitespace=wrap;fillColor=#2875E2;strokeColor=#ffffff;points=[[0.005,0.63,0],[0.1,0.2,0],[0.9,0.2,0],[0.5,0,0],[0.995,0.63,0],[0.72,0.99,0],[0.5,1,0],[0.28,0.99,0]];verticalLabelPosition=bottom;align=center;verticalAlign=top;shape=mxgraph.kubernetes.icon;prIcon=node" vertex="1" parent="NJXucUkprDvSUzeCFG0w-3">
          <mxGeometry x="122.5" y="250" width="75" height="70" as="geometry" />
        </mxCell>
        <mxCell id="NJXucUkprDvSUzeCFG0w-48" value="" style="sketch=0;html=1;dashed=0;whitespace=wrap;fillColor=#2875E2;strokeColor=#ffffff;points=[[0.005,0.63,0],[0.1,0.2,0],[0.9,0.2,0],[0.5,0,0],[0.995,0.63,0],[0.72,0.99,0],[0.5,1,0],[0.28,0.99,0]];verticalLabelPosition=bottom;align=center;verticalAlign=top;shape=mxgraph.kubernetes.icon;prIcon=pod;labelBackgroundColor=none;fontSize=14;fontColor=#FF8000;" vertex="1" parent="NJXucUkprDvSUzeCFG0w-3">
          <mxGeometry x="236.25" y="250" width="34" height="48" as="geometry" />
        </mxCell>
        <mxCell id="NJXucUkprDvSUzeCFG0w-49" value="" style="group" vertex="1" connectable="0" parent="NJXucUkprDvSUzeCFG0w-3">
          <mxGeometry x="261" y="65" width="34" height="90" as="geometry" />
        </mxCell>
        <mxCell id="NJXucUkprDvSUzeCFG0w-43" value="" style="sketch=0;html=1;dashed=0;whitespace=wrap;fillColor=#2875E2;strokeColor=#ffffff;points=[[0.005,0.63,0],[0.1,0.2,0],[0.9,0.2,0],[0.5,0,0],[0.995,0.63,0],[0.72,0.99,0],[0.5,1,0],[0.28,0.99,0]];verticalLabelPosition=bottom;align=center;verticalAlign=top;shape=mxgraph.kubernetes.icon;prIcon=pod;labelBackgroundColor=none;fontSize=14;fontColor=#FF8000;" vertex="1" parent="NJXucUkprDvSUzeCFG0w-49">
          <mxGeometry width="34" height="48" as="geometry" />
        </mxCell>
        <mxCell id="NJXucUkprDvSUzeCFG0w-45" value="&lt;b&gt;&lt;font color=&quot;#000000&quot;&gt;Pods&lt;/font&gt;&lt;/b&gt;" style="sketch=0;html=1;dashed=0;whitespace=wrap;fillColor=#2875E2;strokeColor=#ffffff;points=[[0.005,0.63,0],[0.1,0.2,0],[0.9,0.2,0],[0.5,0,0],[0.995,0.63,0],[0.72,0.99,0],[0.5,1,0],[0.28,0.99,0]];verticalLabelPosition=bottom;align=center;verticalAlign=top;shape=mxgraph.kubernetes.icon;prIcon=pod;labelBackgroundColor=none;fontSize=14;fontColor=#FF8000;" vertex="1" parent="NJXucUkprDvSUzeCFG0w-49">
          <mxGeometry y="42" width="34" height="48" as="geometry" />
        </mxCell>
        <mxCell id="NJXucUkprDvSUzeCFG0w-51" value="&lt;b&gt;Pods&lt;/b&gt;" style="text;html=1;strokeColor=none;fillColor=none;align=center;verticalAlign=middle;whiteSpace=wrap;rounded=0;labelBackgroundColor=none;fontSize=14;fontColor=#000000;" vertex="1" parent="NJXucUkprDvSUzeCFG0w-3">
          <mxGeometry x="248" y="290" width="60" height="30" as="geometry" />
        </mxCell>
        <mxCell id="NJXucUkprDvSUzeCFG0w-7" value="&lt;b&gt;EC2 instance&lt;/b&gt;" style="points=[[0,0],[0.25,0],[0.5,0],[0.75,0],[1,0],[1,0.25],[1,0.5],[1,0.75],[1,1],[0.75,1],[0.5,1],[0.25,1],[0,1],[0,0.75],[0,0.5],[0,0.25]];outlineConnect=0;gradientColor=none;html=1;whiteSpace=wrap;fontSize=12;fontStyle=0;container=1;pointerEvents=0;collapsible=0;recursiveResize=0;shape=mxgraph.aws4.group;grIcon=mxgraph.aws4.group_ec2_instance_contents;strokeColor=#D86613;fillColor=none;verticalAlign=top;align=left;spacingLeft=30;fontColor=#D86613;dashed=0;" vertex="1" parent="1">
          <mxGeometry x="175" y="590" width="130" height="130" as="geometry" />
        </mxCell>
        <mxCell id="NJXucUkprDvSUzeCFG0w-10" value="" style="shape=image;verticalLabelPosition=bottom;labelBackgroundColor=default;verticalAlign=top;aspect=fixed;imageAspect=0;image=https://cdn.freebiesupply.com/logos/large/2x/jenkins-1-logo-png-transparent.png;" vertex="1" parent="NJXucUkprDvSUzeCFG0w-7">
          <mxGeometry x="34.329999999999984" y="20" width="61.35" height="100" as="geometry" />
        </mxCell>
        <mxCell id="NJXucUkprDvSUzeCFG0w-17" value="&lt;b&gt;EC2 instance&lt;/b&gt;" style="points=[[0,0],[0.25,0],[0.5,0],[0.75,0],[1,0],[1,0.25],[1,0.5],[1,0.75],[1,1],[0.75,1],[0.5,1],[0.25,1],[0,1],[0,0.75],[0,0.5],[0,0.25]];outlineConnect=0;gradientColor=none;html=1;whiteSpace=wrap;fontSize=12;fontStyle=0;container=1;pointerEvents=0;collapsible=0;recursiveResize=0;shape=mxgraph.aws4.group;grIcon=mxgraph.aws4.group_ec2_instance_contents;strokeColor=#D86613;fillColor=none;verticalAlign=top;align=left;spacingLeft=30;fontColor=#D86613;dashed=0;" vertex="1" parent="1">
          <mxGeometry x="175" y="435" width="130" height="130" as="geometry" />
        </mxCell>
        <mxCell id="NJXucUkprDvSUzeCFG0w-18" value="" style="shape=image;verticalLabelPosition=bottom;labelBackgroundColor=default;verticalAlign=top;aspect=fixed;imageAspect=0;image=https://cdn.freebiesupply.com/logos/large/2x/jenkins-1-logo-png-transparent.png;" vertex="1" parent="NJXucUkprDvSUzeCFG0w-17">
          <mxGeometry x="34.32" y="25" width="61.35" height="100" as="geometry" />
        </mxCell>
        <mxCell id="NJXucUkprDvSUzeCFG0w-40" style="edgeStyle=elbowEdgeStyle;rounded=1;orthogonalLoop=1;jettySize=auto;html=1;dashed=1;strokeColor=#FF8000;strokeWidth=2;fontSize=14;fontColor=#FF8000;startArrow=oval;startFill=1;" edge="1" parent="1">
          <mxGeometry relative="1" as="geometry">
            <mxPoint x="532" y="685" as="sourcePoint" />
            <mxPoint x="454.5" y="526.5" as="targetPoint" />
          </mxGeometry>
        </mxCell>
        <mxCell id="NJXucUkprDvSUzeCFG0w-19" value="&lt;b&gt;EC2 instance&lt;/b&gt;" style="points=[[0,0],[0.25,0],[0.5,0],[0.75,0],[1,0],[1,0.25],[1,0.5],[1,0.75],[1,1],[0.75,1],[0.5,1],[0.25,1],[0,1],[0,0.75],[0,0.5],[0,0.25]];outlineConnect=0;gradientColor=none;html=1;whiteSpace=wrap;fontSize=12;fontStyle=0;container=1;pointerEvents=0;collapsible=0;recursiveResize=0;shape=mxgraph.aws4.group;grIcon=mxgraph.aws4.group_ec2_instance_contents;strokeColor=#D86613;fillColor=none;verticalAlign=top;align=left;spacingLeft=30;fontColor=#D86613;dashed=0;" vertex="1" parent="1">
          <mxGeometry x="535" y="600" width="130" height="130" as="geometry" />
        </mxCell>
        <mxCell id="NJXucUkprDvSUzeCFG0w-20" value="Master" style="shape=image;verticalLabelPosition=bottom;labelBackgroundColor=none;verticalAlign=top;aspect=fixed;imageAspect=0;image=https://cdn.freebiesupply.com/logos/large/2x/jenkins-1-logo-png-transparent.png;fontStyle=1;fontSize=14;" vertex="1" parent="NJXucUkprDvSUzeCFG0w-19">
          <mxGeometry x="34.32" y="25" width="61.35" height="100" as="geometry" />
        </mxCell>
        <mxCell id="NJXucUkprDvSUzeCFG0w-35" style="edgeStyle=elbowEdgeStyle;rounded=1;orthogonalLoop=1;jettySize=auto;html=1;strokeColor=#3701f9;strokeWidth=2;fontSize=14;fontColor=#FF8000;startArrow=oval;startFill=1;dashed=1;" edge="1" parent="1" target="NJXucUkprDvSUzeCFG0w-11">
          <mxGeometry relative="1" as="geometry">
            <mxPoint x="460" y="500" as="sourcePoint" />
          </mxGeometry>
        </mxCell>
        <mxCell id="NJXucUkprDvSUzeCFG0w-37" style="edgeStyle=elbowEdgeStyle;rounded=1;orthogonalLoop=1;jettySize=auto;html=1;strokeColor=#3701f9;strokeWidth=2;fontSize=14;fontColor=#FF8000;startArrow=oval;startFill=1;dashed=1;" edge="1" parent="1" target="NJXucUkprDvSUzeCFG0w-13">
          <mxGeometry relative="1" as="geometry">
            <mxPoint x="460" y="515" as="sourcePoint" />
          </mxGeometry>
        </mxCell>
        <mxCell id="NJXucUkprDvSUzeCFG0w-41" style="edgeStyle=elbowEdgeStyle;rounded=1;orthogonalLoop=1;jettySize=auto;html=1;dashed=1;strokeColor=#FF8000;strokeWidth=2;fontSize=14;fontColor=#FF8000;startArrow=oval;startFill=1;" edge="1" parent="1" source="NJXucUkprDvSUzeCFG0w-25" target="NJXucUkprDvSUzeCFG0w-17">
          <mxGeometry relative="1" as="geometry" />
        </mxCell>
        <mxCell id="NJXucUkprDvSUzeCFG0w-42" style="edgeStyle=elbowEdgeStyle;rounded=1;orthogonalLoop=1;jettySize=auto;html=1;entryX=1;entryY=0.5;entryDx=0;entryDy=0;dashed=1;strokeColor=#FF8000;strokeWidth=2;fontSize=14;fontColor=#FF8000;startArrow=oval;startFill=1;" edge="1" parent="1" source="NJXucUkprDvSUzeCFG0w-25" target="NJXucUkprDvSUzeCFG0w-7">
          <mxGeometry relative="1" as="geometry" />
        </mxCell>
        <mxCell id="NJXucUkprDvSUzeCFG0w-25" value="&lt;b&gt;Route Tables&lt;/b&gt;" style="outlineConnect=0;dashed=0;verticalLabelPosition=bottom;verticalAlign=top;align=center;html=1;shape=mxgraph.aws3.route_table;fillColor=#F58536;gradientColor=none;labelBackgroundColor=none;fontSize=14;" vertex="1" parent="1">
          <mxGeometry x="382.5" y="480" width="75" height="69" as="geometry" />
        </mxCell>
        <mxCell id="NJXucUkprDvSUzeCFG0w-28" style="edgeStyle=orthogonalEdgeStyle;orthogonalLoop=1;jettySize=auto;html=1;fontSize=14;fontColor=#FF8000;rounded=1;strokeColor=#f9b701;strokeWidth=2;startArrow=oval;startFill=1;" edge="1" parent="1" source="NJXucUkprDvSUzeCFG0w-26">
          <mxGeometry relative="1" as="geometry">
            <mxPoint x="600" y="750" as="targetPoint" />
          </mxGeometry>
        </mxCell>
        <mxCell id="NJXucUkprDvSUzeCFG0w-33" style="edgeStyle=elbowEdgeStyle;rounded=1;orthogonalLoop=1;jettySize=auto;html=1;entryX=0.083;entryY=0.667;entryDx=0;entryDy=0;entryPerimeter=0;strokeColor=#3701f9;strokeWidth=2;fontSize=14;fontColor=#FF8000;startArrow=oval;startFill=1;" edge="1" parent="1" source="NJXucUkprDvSUzeCFG0w-26" target="NJXucUkprDvSUzeCFG0w-4">
          <mxGeometry relative="1" as="geometry">
            <Array as="points">
              <mxPoint x="20" y="680" />
              <mxPoint x="60" y="550" />
            </Array>
          </mxGeometry>
        </mxCell>
        <mxCell id="NJXucUkprDvSUzeCFG0w-26" value="&lt;b&gt;User&lt;/b&gt;" style="points=[[0.35,0,0],[0.98,0.51,0],[1,0.71,0],[0.67,1,0],[0,0.795,0],[0,0.65,0]];verticalLabelPosition=bottom;sketch=0;html=1;verticalAlign=top;aspect=fixed;align=center;pointerEvents=1;shape=mxgraph.cisco19.user;fillColor=#005073;strokeColor=none;labelBackgroundColor=none;fontSize=14;" vertex="1" parent="1">
          <mxGeometry x="385" y="910" width="70" height="70" as="geometry" />
        </mxCell>
        <mxCell id="NJXucUkprDvSUzeCFG0w-34" style="edgeStyle=elbowEdgeStyle;rounded=1;orthogonalLoop=1;jettySize=auto;html=1;strokeColor=#3701f9;strokeWidth=2;fontSize=14;fontColor=#FF8000;startArrow=oval;startFill=1;dashed=1;" edge="1" parent="1" source="NJXucUkprDvSUzeCFG0w-4" target="NJXucUkprDvSUzeCFG0w-25">
          <mxGeometry relative="1" as="geometry" />
        </mxCell>
        <mxCell id="NJXucUkprDvSUzeCFG0w-46" value="" style="sketch=0;html=1;dashed=0;whitespace=wrap;fillColor=#2875E2;strokeColor=#ffffff;points=[[0.005,0.63,0],[0.1,0.2,0],[0.9,0.2,0],[0.5,0,0],[0.995,0.63,0],[0.72,0.99,0],[0.5,1,0],[0.28,0.99,0]];verticalLabelPosition=bottom;align=center;verticalAlign=top;shape=mxgraph.kubernetes.icon;prIcon=pod;labelBackgroundColor=none;fontSize=14;fontColor=#FF8000;" vertex="1" parent="1">
          <mxGeometry x="680" y="440" width="34" height="48" as="geometry" />
        </mxCell>
        <mxCell id="NJXucUkprDvSUzeCFG0w-47" value="" style="sketch=0;html=1;dashed=0;whitespace=wrap;fillColor=#2875E2;strokeColor=#ffffff;points=[[0.005,0.63,0],[0.1,0.2,0],[0.9,0.2,0],[0.5,0,0],[0.995,0.63,0],[0.72,0.99,0],[0.5,1,0],[0.28,0.99,0]];verticalLabelPosition=bottom;align=center;verticalAlign=top;shape=mxgraph.kubernetes.icon;prIcon=pod;labelBackgroundColor=none;fontSize=14;fontColor=#FF8000;" vertex="1" parent="1">
          <mxGeometry x="714" y="470" width="34" height="48" as="geometry" />
        </mxCell>
        <mxCell id="NJXucUkprDvSUzeCFG0w-54" style="edgeStyle=elbowEdgeStyle;rounded=1;orthogonalLoop=1;jettySize=auto;html=1;exitX=0.995;exitY=0.63;exitDx=0;exitDy=0;exitPerimeter=0;entryX=0.28;entryY=0.99;entryDx=0;entryDy=0;entryPerimeter=0;dashed=1;dashPattern=1 1;strokeColor=#000000;strokeWidth=2;fontSize=14;fontColor=#000000;startArrow=oval;startFill=1;" edge="1" parent="1" source="NJXucUkprDvSUzeCFG0w-15" target="NJXucUkprDvSUzeCFG0w-46">
          <mxGeometry relative="1" as="geometry" />
        </mxCell>
        <mxCell id="NJXucUkprDvSUzeCFG0w-57" style="edgeStyle=elbowEdgeStyle;rounded=1;orthogonalLoop=1;jettySize=auto;html=1;strokeColor=#000000;strokeWidth=2;fontSize=14;fontColor=none;startArrow=oval;startFill=1;" edge="1" parent="1" source="NJXucUkprDvSUzeCFG0w-55" target="NJXucUkprDvSUzeCFG0w-56">
          <mxGeometry relative="1" as="geometry" />
        </mxCell>
        <mxCell id="NJXucUkprDvSUzeCFG0w-55" value="&lt;b&gt;Internet Gateway&lt;/b&gt;" style="outlineConnect=0;dashed=0;verticalLabelPosition=bottom;verticalAlign=top;align=center;html=1;shape=mxgraph.aws3.internet_gateway;fillColor=#F58536;gradientColor=none;labelBackgroundColor=none;fontSize=14;fontColor=none;" vertex="1" parent="1">
          <mxGeometry x="768" y="400" width="69" height="72" as="geometry" />
        </mxCell>
        <mxCell id="NJXucUkprDvSUzeCFG0w-56" value="&lt;b&gt;Internet&lt;/b&gt;" style="outlineConnect=0;dashed=0;verticalLabelPosition=bottom;verticalAlign=top;align=center;html=1;shape=mxgraph.aws3.internet_3;fillColor=#D2D3D3;gradientColor=none;labelBackgroundColor=none;fontSize=14;fontColor=none;" vertex="1" parent="1">
          <mxGeometry x="881" y="409" width="79.5" height="54" as="geometry" />
        </mxCell>
      </root>
    </mxGraphModel>
  </diagram>
</mxfile>
